<svg width="21" height="21" viewBox="0 0 21 21" fill="none" xmlns="http://www.w3.org/2000/svg">
	<path d="M11.0042 1.28293C10.6969 1.10759 10.32 1.10759 10.0127 1.28293L6.2582 3.42591C5.94638 3.60389 5.75391 3.93537 5.75391 4.2944V8.56059C5.75391 8.91962 5.94638 9.2511 6.2582 9.42908L10.0127 11.5721C10.32 11.7474 10.6969 11.7474 11.0042 11.5721L14.7587 9.42908C15.0705 9.2511 15.263 8.91962 15.263 8.56059V4.2944C15.263 3.93537 15.0705 3.60389 14.7587 3.42591L11.0042 1.28293Z" stroke="white" stroke-miterlimit="10"/>
	<path d="M5.75391 3.71387L10.0214 6.15699C10.3298 6.33355 10.7088 6.33317 11.0168 6.156L15.263 3.71387" stroke="white" stroke-miterlimit="10"/>
	<path d="M10.5078 11.8554L10.5188 6.44238" stroke="white" stroke-miterlimit="10"/>
	<path d="M6.25068 9.42836C5.9435 9.25306 5.56657 9.25306 5.25939 9.42836L1.50484 11.571C1.19299 11.7489 1.00049 12.0804 1.00049 12.4395V16.7056C1.00049 17.0647 1.19296 17.3962 1.50478 17.5741L5.25933 19.7171C5.56654 19.8925 5.94353 19.8925 6.25074 19.7171L10.0053 17.5741C10.3171 17.3962 10.5096 17.0647 10.5096 16.7056V12.4395C10.5096 12.0804 10.3171 11.7489 10.0052 11.571L6.25068 9.42836Z" stroke="white" stroke-miterlimit="10"/>
	<path d="M1.00049 11.8584L5.26758 14.3015C5.57598 14.4781 5.95492 14.4777 6.26298 14.3005L10.5096 11.8584" stroke="white" stroke-miterlimit="10"/>
	<path d="M5.75488 19.9999L5.76586 14.5869" stroke="white" stroke-miterlimit="10"/>
	<path d="M15.7409 9.42833C15.4337 9.25305 15.0568 9.25305 14.7496 9.42835L10.9951 11.571C10.6832 11.7489 10.4907 12.0804 10.4907 12.4395V16.7056C10.4907 17.0647 10.6832 17.3962 10.995 17.5741L14.7496 19.7171C15.0568 19.8925 15.4338 19.8925 15.741 19.7171L19.4959 17.5741C19.8078 17.3962 20.0003 17.0647 20.0003 16.7056V12.4395C20.0003 12.0805 19.8078 11.7489 19.4959 11.571L15.7409 9.42833Z" stroke="white" stroke-miterlimit="10"/>
	<path d="M10.4907 11.8584L14.7583 14.3015C15.0667 14.4781 15.4456 14.4777 15.7536 14.3006L20.0003 11.8584" stroke="white" stroke-miterlimit="10"/>
	<path d="M15.2461 19.9999L15.2566 14.5869" stroke="white" stroke-miterlimit="10"/>
</svg>
